<svg xmlns="http://www.w3.org/2000/svg" viewBox="0 0 128 128" role="img" aria-label="Deen Companion">
  <rect width="128" height="128" rx="28" fill="#2f5d50"/>
  <path d="M91.8 72.6c-4.8 14.8-18.7 25.5-35 25.5-20.3 0-36.8-16.5-36.8-36.8 0-17.4 12.1-32 28.3-35.8-6 6.7-8.7 16.2-6.3 25.6 4 15.7 20 25.2 35.7 21.2 5.1-1.3 9.8-3.8 13.7-7.2.5 2.4.6 4.9.4 7.5z" fill="#f8faf7"/>
  <path d="M82.8 25.5l5.5 11.2 12.3 1.8-8.9 8.7 2.1 12.3-11-5.8-11 5.8 2.1-12.3-8.9-8.7 12.3-1.8 5.5-11.2z" fill="#c78a19"/>
</svg>
